<?xml version="1.0" encoding="UTF-8" standalone="no"?>
<!DOCTYPE svg PUBLIC "-//W3C//DTD SVG 1.1//EN" "http://www.w3.org/Graphics/SVG/1.1/DTD/svg11.dtd">
<svg width="100%" height="100%" viewBox="0 0 3820 1024" version="1.1" xmlns="http://www.w3.org/2000/svg" xmlns:xlink="http://www.w3.org/1999/xlink" xml:space="preserve" xmlns:serif="http://www.serif.com/" style="fill-rule:evenodd;clip-rule:evenodd;stroke-linejoin:round;stroke-miterlimit:2;">
    <g transform="matrix(1,0,0,1,-1396.86,-6.72207)">
        <g id="Banner" transform="matrix(7.14925,0,0,1.91661,-1892.3,-408.364)">
            <rect x="460.071" y="216.572" width="534.276" height="534.276" style="fill:none;"/>
            <g transform="matrix(0.315379,0,0,1.17641,302.341,-99.1741)">
                <g transform="matrix(0.521754,0,0,0.521754,460.071,221.511)">
                    <path d="M525.66,370.445C517.759,363.816 506.241,363.816 498.34,370.445C460.432,402.252 354.027,491.532 313.148,525.832C308.83,529.455 303.25,531.214 297.635,530.723C292.021,530.232 286.831,527.53 283.208,523.212C276.834,515.615 269.264,506.593 262.889,498.995C259.266,494.677 257.507,489.097 257.998,483.483C258.49,477.868 261.191,472.679 265.509,469.056C313.511,428.779 453.896,310.988 498.34,273.696C506.241,267.068 517.759,267.068 525.66,273.696C570.104,310.988 710.489,428.779 758.491,469.056C762.809,472.679 765.51,477.868 766.002,483.483C766.493,489.097 764.734,494.677 761.111,498.995C754.736,506.593 747.166,515.615 740.792,523.212C737.169,527.53 731.979,530.232 726.365,530.723C720.75,531.214 715.17,529.455 710.852,525.832C669.973,491.532 563.568,402.252 525.66,370.445Z" style="fill:rgb(226,24,97);"/>
                </g>
                <g transform="matrix(0.521754,0,0,0.521754,460.071,339.87)">
                    <path d="M525.66,370.445C517.759,363.816 506.241,363.816 498.34,370.445C460.432,402.252 354.027,491.532 313.148,525.832C308.83,529.455 303.25,531.214 297.635,530.723C292.021,530.232 286.831,527.53 283.208,523.212C276.834,515.615 269.264,506.593 262.889,498.995C259.266,494.677 257.507,489.097 257.998,483.483C258.49,477.868 261.191,472.679 265.509,469.056C313.511,428.779 453.896,310.988 498.34,273.696C506.241,267.068 517.759,267.068 525.66,273.696C570.104,310.988 710.489,428.779 758.491,469.056C762.809,472.679 765.51,477.868 766.002,483.483C766.493,489.097 764.734,494.677 761.111,498.995C754.736,506.593 747.166,515.615 740.792,523.212C737.169,527.53 731.979,530.232 726.365,530.723C720.75,531.214 715.17,529.455 710.852,525.832C669.973,491.532 563.568,402.252 525.66,370.445Z" style="fill:rgb(226,24,97);"/>
                </g>
            </g>
            <g transform="matrix(0.154981,0,0,0.578101,225.501,174.437)">
                <g transform="matrix(608.92,0,0,608.92,4688.67,715.373)">
                </g>
                <text x="2523.96px" y="715.373px" style="font-family:'Kanit-Regular', 'Kanit';font-size:608.92px;fill:rgb(226,24,97);">Pr<tspan x="3089.65px 3443.43px 3789.3px " y="715.373px 715.373px 715.373px ">ono</tspan>te</text>
            </g>
        </g>
    </g>
</svg>
